<?xml version="1.0" encoding="utf-8"?>
<!-- Generator: Adobe Illustrator 22.0.1, SVG Export Plug-In . SVG Version: 6.00 Build 0)  -->
<svg version="1.1" xmlns="http://www.w3.org/2000/svg" xmlns:xlink="http://www.w3.org/1999/xlink" x="0px" y="0px"
	 viewBox="0 0 166 34" style="enable-background:new 0 0 166 34;" xml:space="preserve">
<style type="text/css">
	.st0{enable-background:new    ;}
	.st1{fill-rule:evenodd;clip-rule:evenodd;fill:#FFFFFF;}
	.st2{fill-rule:evenodd;clip-rule:evenodd;fill:#CDDFEF;}
	.st3{fill-rule:evenodd;clip-rule:evenodd;fill:#96BADC;}
	.st4{fill-rule:evenodd;clip-rule:evenodd;fill:#8DADCC;}
	.st5{fill-rule:evenodd;clip-rule:evenodd;fill:#B4BBC1;}
</style>
<g id="StakeCube_copy_1_" class="st0">
	<g id="StakeCube_copy">
		<g>
			<path class="st1" d="M44.1,8.5c-1.1,0.8-1.8,2.2-2.1,4c-0.3,1.8,0,3.1,0.8,3.9c0.8,0.8,2.1,1.1,3.9,1.1h4.1
				c0.9,0,1.5,0.2,1.9,0.5c0.3,0.3,0.5,0.9,0.3,1.7c-0.1,0.7-0.5,1.3-1,1.6c-0.5,0.2-1.2,0.4-2.1,0.4h-8.8l-0.5,3H50
				c2.4,0,4.1-0.6,5.2-1.7c0.8-0.8,1.3-2,1.5-3.5c0.4-2.1,0-3.5-1-4.2c-0.7-0.5-1.8-0.7-3.5-0.7h-4.6c-0.7,0-1.2-0.2-1.6-0.5
				c-0.4-0.3-0.5-0.8-0.4-1.4c0.3-1.6,1.3-2.3,3.2-2.3h8.7l0.5-3h-9.2C46.7,7.2,45.2,7.6,44.1,8.5z M64.2,14.3h3.5l0.4-2.5h-3.5
				l0.8-4.7h-3.2l-0.8,4.7h-2.3l-0.4,2.5H61l-1.1,6.3c-0.2,1.2,0,2.2,0.5,2.9c0.5,0.7,1.4,1,2.6,1h2.9l0.4-2.6h-2.1
				c-0.5,0-0.8-0.2-0.9-0.7c-0.1-0.5-0.2-1.1,0-1.8L64.2,14.3z M79.9,12.4c-0.6-0.4-1.6-0.6-2.9-0.6h-6.6l-0.4,2.6h5.4
				c1.2,0,1.9,0.2,2.3,0.5c0.3,0.3,0.4,1,0.3,2h-4.3c-1.7,0-3,0.3-3.9,0.9c-0.9,0.6-1.4,1.6-1.7,3c-0.2,1.2,0,2.1,0.5,2.7
				c0.5,0.7,1.4,1,2.6,1h8.7l1.4-8C81.5,14.6,81.1,13.2,79.9,12.4z M76.9,22.1h-4.1c-0.6,0-1-0.1-1.3-0.3c-0.3-0.2-0.4-0.6-0.3-1.1
				c0.1-0.6,0.4-1,0.8-1.2c0.3-0.1,0.8-0.2,1.4-0.2h3.8L76.9,22.1z M97.5,11.9h-4L87.1,18L89,7.2h-3.2l-3,17.4H86l1.1-6.2l3.9,6.2
				h4.3l-4.5-6.5L97.5,11.9z M102,15c0.5-0.3,1.3-0.5,2.4-0.5h4.3l0.4-2.6h-4.7c-1.6,0-3,0.3-4.1,1c-1.7,1-2.7,2.8-3.2,5.3
				c-0.3,2-0.1,3.5,0.8,4.7c0.9,1.1,2.3,1.7,4.3,1.7h4.7l0.4-2.5h-4.3c-1.2,0-2-0.2-2.3-0.5c-0.4-0.4-0.5-1-0.3-1.9h7.3l0.4-2.6H101
				C101.1,16,101.5,15.3,102,15z"/>
		</g>
	</g>
</g>
<g id="StakeCube_copy_2_1_" class="st0">
	<g id="StakeCube_copy_2">
		<g>
			<path class="st2" d="M113.6,15.9c0.3-1.8,0.8-3.1,1.4-4c0.9-1.2,2.1-1.8,3.7-1.8h5.8l0.5-2.9h-5.8c-2.9,0-5.1,0.9-6.7,2.6
				c-1.3,1.5-2.3,3.6-2.7,6.4c-0.5,2.9-0.1,5,1.1,6.4c1.1,1.3,2.9,1.9,5.3,1.9h5.9l0.5-2.9h-5.8c-1.7,0-2.8-0.6-3.3-1.7
				c-0.3-0.7-0.3-1.8-0.1-3.2C113.5,16.5,113.5,16.3,113.6,15.9z M132.7,21.9H130c-0.8,0-1.4-0.2-1.6-0.6c-0.2-0.3-0.3-0.9-0.1-1.6
				l1.3-7.9h-3.1l-1.4,8.1c-0.3,1.7-0.1,3,0.7,3.7c0.6,0.6,1.8,1,3.6,1h6.1l2.2-12.8h-3.1L132.7,21.9z M146.6,11.9h-2.8l0.8-4.7
				h-3.2l-3,17.4h6.2c2.2,0,4-0.8,5.3-2.4c0.9-1.1,1.5-2.5,1.8-4.1c0.3-2,0.1-3.6-0.8-4.6C150.1,12.4,148.6,11.9,146.6,11.9z
				 M148.4,18.3c-0.2,1.1-0.6,2-1.2,2.7c-0.7,0.7-1.8,1.1-3.1,1.1h-2l1.3-7.4h2c1.4,0,2.4,0.4,2.8,1.1
				C148.5,16.2,148.6,17.1,148.4,18.3z M157.9,15c0.5-0.3,1.3-0.5,2.4-0.5h4.3l0.4-2.6h-4.7c-1.6,0-3,0.3-4.1,1
				c-1.7,1-2.7,2.8-3.2,5.3c-0.3,2-0.1,3.5,0.8,4.7c0.9,1.1,2.3,1.7,4.3,1.7h4.7l0.4-2.5H159c-1.2,0-2-0.2-2.3-0.5
				c-0.4-0.4-0.5-1-0.3-1.9h7.3l0.4-2.6h-7.3C157,16,157.4,15.3,157.9,15z"/>
		</g>
	</g>
</g>
<g id="bord_copy_2_1_">
	<g id="bb">
		<g>
			<polygon class="st3" points="28.5,8.1 27,23.3 16.5,30 6,23.3 4.5,8.1 0,5.9 2.5,25.3 16.5,34 30.6,25.2 33,5.9 			"/>
		</g>
	</g>
	<g id="bt">
		<g>
			<polygon class="st2" points="16.5,0 3.1,4.9 7.3,6.9 16.5,3.8 25.7,6.9 29.8,4.9 			"/>
		</g>
	</g>
</g>
<g id="bd2_copy_2_1_">
	<g id="br">
		<g>
			<polygon class="st4" points="16.1,15.5 16.5,24.1 22.6,19.7 23.1,11.9 			"/>
		</g>
	</g>
	<g id="bl">
		<g>
			<polygon class="st2" points="16.5,15.6 9.5,12.1 9.8,19.9 16.5,24.1 			"/>
		</g>
	</g>
	<g id="bt_1_">
		<g>
			<polygon class="st5" points="16.1,8.5 9.4,12.2 16.5,15.7 23.2,12 			"/>
		</g>
	</g>
</g>
<g id="bd1_copy_2_1_">
	<g id="bdy3">
		<g>
			<polygon class="st1" points="16.4,6 10.7,8.5 16.5,11.2 22.3,8.5 			"/>
		</g>
	</g>
	<g id="bd2">
		<g>
			<polygon class="st4" points="7.9,9.8 8.6,22.4 14.8,26.1 14.8,13.1 			"/>
		</g>
	</g>
	<g id="bdt">
		<g>
			<polygon class="st2" points="18.2,13.1 18.2,26.1 24.4,22.4 25.1,9.8 			"/>
		</g>
	</g>
</g>
</svg>
