<?xml version="1.0" encoding="utf-8"?>
<!-- Generator: Adobe Illustrator 25.2.1, SVG Export Plug-In . SVG Version: 6.00 Build 0)  -->
<!DOCTYPE svg PUBLIC "-//W3C//DTD SVG 1.1//EN" "http://www.w3.org/Graphics/SVG/1.1/DTD/svg11.dtd" [
	<!ENTITY ns_extend "http://ns.adobe.com/Extensibility/1.0/">
	<!ENTITY ns_ai "http://ns.adobe.com/AdobeIllustrator/10.0/">
	<!ENTITY ns_graphs "http://ns.adobe.com/Graphs/1.0/">
	<!ENTITY ns_vars "http://ns.adobe.com/Variables/1.0/">
	<!ENTITY ns_imrep "http://ns.adobe.com/ImageReplacement/1.0/">
	<!ENTITY ns_sfw "http://ns.adobe.com/SaveForWeb/1.0/">
	<!ENTITY ns_custom "http://ns.adobe.com/GenericCustomNamespace/1.0/">
	<!ENTITY ns_adobe_xpath "http://ns.adobe.com/XPath/1.0/">
]>
<svg version="1.1" id="StakeCube_Icon" xmlns:x="&ns_extend;" xmlns:i="&ns_ai;" xmlns:graph="&ns_graphs;"
	 xmlns="http://www.w3.org/2000/svg" xmlns:xlink="http://www.w3.org/1999/xlink" x="0px" y="0px" width="512px" height="512px"
	 viewBox="0 0 512 512" style="enable-background:new 0 0 512 512;" xml:space="preserve">
<style type="text/css">
	.st0{fill:url(#SVGID_1_);}
	.st1{fill:#FFFFFF;}
</style>
<metadata>
	<sfw  xmlns="&ns_sfw;">
		<slices></slices>
		<sliceSourceBounds  bottomLeftOrigin="true" height="505.8" width="505.8" x="3.1" y="3.1"></sliceSourceBounds>
		<optimizationSettings>
			<targetSettings  fileFormat="PNG24Format" targetSettingsID="0">
				<PNG24Format  filtered="false" interlaced="true" matteColor="#FFFFFF" noMatteColor="true" transparency="true"></PNG24Format>
			</targetSettings>
		</optimizationSettings>
	</sfw>
</metadata>
<g>
	<g>
		<g>
			
				<linearGradient id="SVGID_1_" gradientUnits="userSpaceOnUse" x1="256" y1="410.2213" x2="256" y2="82.0735" gradientTransform="matrix(1 0 0 -1 0 512)">
				<stop  offset="0" style="stop-color:#1DFFB4"/>
				<stop  offset="1" style="stop-color:#0094F6"/>
			</linearGradient>
			<circle class="st0" cx="256" cy="256" r="252.9"/>
			<g>
				<polygon class="st1" points="236.6,391 134.3,331.9 134.3,213.6 95.5,191.2 95.5,354.3 236.6,435.7 				"/>
				<polygon class="st1" points="377.7,213.6 377.7,331.9 275.4,391 275.4,435.7 416.5,354.3 416.5,191.2 				"/>
				<polygon class="st1" points="153.7,180.1 256,121 358.3,180.1 397,157.7 256,76.3 115,157.7 				"/>
				<polygon class="st1" points="256,250.4 312.9,217.6 256,184.8 199.1,217.6 				"/>
				<polygon class="st1" points="246.3,267.2 189.5,234.4 189.5,300 246.3,332.8 				"/>
				<polygon class="st1" points="265.7,267.2 265.7,332.8 322.5,300 322.5,234.4 				"/>
			</g>
		</g>
	</g>
</g>
</svg>
