<?xml version="1.0" encoding="utf-8"?>
<!-- Generator: Adobe Illustrator 25.4.1, SVG Export Plug-In . SVG Version: 6.00 Build 0)  -->
<!DOCTYPE svg PUBLIC "-//W3C//DTD SVG 1.1//EN" "http://www.w3.org/Graphics/SVG/1.1/DTD/svg11.dtd" [
	<!ENTITY ns_extend "http://ns.adobe.com/Extensibility/1.0/">
	<!ENTITY ns_ai "http://ns.adobe.com/AdobeIllustrator/10.0/">
	<!ENTITY ns_graphs "http://ns.adobe.com/Graphs/1.0/">
	<!ENTITY ns_vars "http://ns.adobe.com/Variables/1.0/">
	<!ENTITY ns_imrep "http://ns.adobe.com/ImageReplacement/1.0/">
	<!ENTITY ns_sfw "http://ns.adobe.com/SaveForWeb/1.0/">
	<!ENTITY ns_custom "http://ns.adobe.com/GenericCustomNamespace/1.0/">
	<!ENTITY ns_adobe_xpath "http://ns.adobe.com/XPath/1.0/">
]>
<svg version="1.1" id="Layer_1" xmlns:x="&ns_extend;" xmlns:i="&ns_ai;" xmlns:graph="&ns_graphs;"
	 xmlns="http://www.w3.org/2000/svg" xmlns:xlink="http://www.w3.org/1999/xlink" x="0px" y="0px" width="512px" height="125px"
	 viewBox="0 0 512 125" enable-background="new 0 0 512 125" xml:space="preserve">
<metadata>
	<sfw  xmlns="&ns_sfw;">
		<slices></slices>
		<sliceSourceBounds  bottomLeftOrigin="true" height="118.115" width="509.608" x="-1610.248" y="-1270.002"></sliceSourceBounds>
		<optimizationSettings>
			<targetSettings  fileFormat="PNG24Format" targetSettingsID="0">
				<PNG24Format  filtered="false" interlaced="true" matteColor="#FFFFFF" noMatteColor="false" transparency="true">
					</PNG24Format>
			</targetSettings>
		</optimizationSettings>
	</sfw>
</metadata>
<g>
	<g>
		<g>
			<path fill="#FFFFFF" d="M184.199,44.312c-2.608-1.175-5.622-1.913-9.041-2.212l-3.59-0.32c-2.139-0.172-3.678-0.747-4.618-1.732
				c-0.941-0.983-1.41-2.117-1.41-3.399c0-1.067,0.256-2.041,0.769-2.917c0.513-0.875,1.293-1.56,2.341-2.052
				c1.047-0.491,2.341-0.738,3.879-0.738c1.624,0,2.982,0.289,4.072,0.866c1.09,0.577,1.913,1.346,2.469,2.309
				c0.555,0.961,0.833,2.019,0.833,3.173h10.26c0-3.034-0.705-5.696-2.117-7.983c-1.41-2.287-3.431-4.072-6.059-5.354
				c-2.629-1.282-5.782-1.924-9.458-1.924c-3.505,0-6.54,0.588-9.105,1.763c-2.565,1.176-4.564,2.853-5.996,5.034
				c-1.432,2.179-2.148,4.788-2.148,7.822c0,4.148,1.389,7.471,4.168,9.972c2.778,2.501,6.498,3.966,11.157,4.393l3.527,0.256
				c2.863,0.256,4.938,0.824,6.22,1.699c1.282,0.877,1.924,2.064,1.924,3.558c0,1.198-0.343,2.256-1.026,3.175
				c-0.683,0.92-1.689,1.635-3.013,2.148c-1.325,0.513-2.972,0.769-4.938,0.769c-2.18,0-3.955-0.309-5.322-0.93
				c-1.369-0.618-2.384-1.442-3.047-2.468c-0.663-1.026-0.994-2.137-0.994-3.335h-10.26c0,3.037,0.759,5.719,2.277,8.048
				c1.517,2.331,3.729,4.179,6.636,5.547c2.906,1.367,6.476,2.052,10.709,2.052c3.976,0,7.395-0.621,10.26-1.86
				c2.864-1.24,5.076-2.992,6.636-5.259c1.56-2.265,2.341-4.894,2.341-7.888c0-2.906-0.738-5.375-2.213-7.406
				C188.848,47.091,186.806,45.488,184.199,44.312z"/>
			<path fill="#FFFFFF" d="M209.784,25.619h-9.555l-0.02,9.491h-5.366v7.566h5.351l-0.029,13.85c0,3.549,0.513,6.36,1.54,8.433
				c1.026,2.073,2.629,3.559,4.809,4.456c2.18,0.898,5.044,1.348,8.593,1.348h4.938v-8.722h-5.194c-1.625,0-2.875-0.437-3.751-1.314
				c-0.877-0.875-1.314-2.148-1.314-3.816V42.677h10.26V35.11h-10.26V25.619z"/>
			<path fill="#FFFFFF" d="M248.674,36.072c-2.459-1.025-5.483-1.538-9.073-1.538c-1.241,0-2.565,0.022-3.976,0.064
				c-1.41,0.044-2.778,0.108-4.103,0.192c-1.326,0.087-2.501,0.172-3.527,0.257v8.657c1.325-0.086,2.81-0.161,4.457-0.225
				c1.644-0.064,3.238-0.117,4.777-0.161c1.539-0.042,2.778-0.064,3.719-0.064c1.881,0,3.248,0.438,4.104,1.315
				c0.854,0.877,1.282,2.234,1.282,4.072v0.064h-6.349c-3.121,0-5.879,0.396-8.272,1.186c-2.395,0.792-4.254,2.011-5.579,3.655
				c-1.326,1.646-1.988,3.752-1.988,6.317c0,2.351,0.534,4.371,1.602,6.059c1.069,1.689,2.555,2.983,4.457,3.88
				c1.902,0.897,4.114,1.346,6.636,1.346c2.437,0,4.499-0.449,6.189-1.346c1.688-0.897,3.014-2.181,3.975-3.847
				c0.432-0.749,0.777-1.587,1.058-2.491v6.787h8.144V48.705c0-3.248-0.641-5.91-1.924-7.984
				C253.002,38.649,251.132,37.098,248.674,36.072z M243.031,63.421c-0.92,0.407-1.956,0.61-3.111,0.61
				c-1.795,0-3.173-0.438-4.136-1.315c-0.962-0.875-1.443-2.02-1.443-3.431c0-1.496,0.481-2.682,1.443-3.559
				c0.962-0.877,2.341-1.315,4.136-1.315h6.413v2.822c-0.086,1.753-0.428,3.12-1.026,4.103
				C244.709,62.321,243.95,63.015,243.031,63.421z"/>
			<polygon fill="#FFFFFF" points="298.722,35.11 287.95,35.11 275.189,51.82 275.189,23.44 264.865,23.44 264.865,70.25 
				275.189,70.25 275.189,53.834 278.588,53.834 289.617,70.25 301.223,70.25 287.177,50.119 			"/>
			<path fill="#FFFFFF" d="M329.79,36.424c-2.586-1.688-5.761-2.532-9.522-2.532c-2.864,0-5.418,0.502-7.663,1.507
				c-2.244,1.005-4.126,2.362-5.643,4.072c-1.518,1.71-2.672,3.644-3.463,5.803c-0.792,2.159-1.186,4.415-1.186,6.764v1.282
				c0,2.267,0.395,4.479,1.186,6.638c0.79,2.159,1.956,4.114,3.495,5.867c1.539,1.753,3.452,3.142,5.739,4.167
				c2.287,1.026,4.927,1.54,7.92,1.54c2.949,0,5.556-0.524,7.823-1.571c2.265-1.047,4.146-2.49,5.643-4.329
				c1.496-1.838,2.501-3.933,3.014-6.284h-9.426c-0.427,1.069-1.24,1.967-2.437,2.693c-1.197,0.728-2.736,1.09-4.616,1.09
				c-2.053,0-3.719-0.426-5.002-1.282c-1.282-0.855-2.223-2.062-2.821-3.622c-0.332-0.866-0.563-1.823-0.711-2.853h25.655v-3.463
				c0-3.206-0.684-6.165-2.052-8.881C334.353,40.315,332.376,38.114,329.79,36.424z M312.893,47.006
				c0.641-1.56,1.581-2.736,2.822-3.527c1.239-0.791,2.757-1.187,4.552-1.187c1.752,0,3.217,0.396,4.393,1.187
				c1.175,0.791,2.052,1.924,2.629,3.398c0.309,0.79,0.529,1.682,0.672,2.661h-15.774C312.348,48.611,312.581,47.765,312.893,47.006
				z"/>
			<path fill="#999999" d="M377.914,63.613c-2.908,2.16-6.498,3.239-10.772,3.239c-3.078,0-5.772-0.545-8.08-1.635
				c-2.308-1.09-4.232-2.587-5.771-4.488c-1.538-1.902-2.683-4.05-3.431-6.445c-0.748-2.393-1.122-4.895-1.122-7.502
				c0-2.736,0.385-5.312,1.154-7.727c0.769-2.415,1.902-4.554,3.398-6.413c1.496-1.86,3.367-3.312,5.611-4.36
				c2.244-1.047,4.841-1.571,7.791-1.571c2.735,0,5.226,0.471,7.47,1.41c2.244,0.942,4.093,2.341,5.547,4.201
				c1.453,1.86,2.351,4.179,2.693,6.958h4.938c-0.385-3.463-1.454-6.466-3.207-9.011c-1.753-2.543-4.094-4.52-7.022-5.931
				c-2.928-1.41-6.402-2.115-10.42-2.115c-3.976,0-7.418,0.696-10.324,2.084c-2.908,1.39-5.29,3.237-7.15,5.546
				c-1.86,2.309-3.228,4.884-4.104,7.727c-0.877,2.844-1.314,5.697-1.314,8.561v1.218c0,2.65,0.427,5.376,1.282,8.175
				c0.855,2.802,2.212,5.398,4.072,7.792c1.86,2.395,4.275,4.328,7.246,5.802c2.97,1.476,6.551,2.214,10.741,2.214
				c4.145,0,7.704-0.749,10.676-2.245c2.971-1.496,5.332-3.537,7.086-6.125c1.753-2.585,2.864-5.482,3.335-8.688h-4.938
				C382.616,58.346,380.82,61.455,377.914,63.613z"/>
			<path fill="#999999" d="M419.402,56.72c0,3.078-0.866,5.537-2.597,7.374c-1.732,1.838-4.051,2.757-6.957,2.757
				c-2.78,0-4.949-0.866-6.509-2.596c-1.561-1.732-2.341-4.073-2.341-7.022V36.265h-4.745v20.006c0,4.703,1.068,8.368,3.207,10.997
				c2.137,2.63,5.236,3.944,9.298,3.944h0.192c2.736,0,5.001-0.609,6.797-1.827s3.142-2.95,4.04-5.195
				c0.22-0.549,0.411-1.126,0.577-1.73v7.791h3.847V36.265h-4.81V56.72z"/>
			<path fill="#999999" d="M466.501,40.432c-1.433-1.624-3.154-2.906-5.162-3.847c-2.01-0.939-4.254-1.41-6.733-1.41
				c-2.821,0-5.334,0.619-7.535,1.86c-2.202,1.24-3.955,3.045-5.257,5.418c-0.08,0.145-0.15,0.297-0.225,0.446V23.44h-4.81v46.81
				h3.847v-7.635c0.169,0.394,0.348,0.782,0.546,1.158c1.26,2.395,3.013,4.254,5.257,5.579c2.245,1.325,4.863,1.989,7.856,1.989
				c2.565,0,4.874-0.482,6.926-1.443c2.052-0.962,3.793-2.277,5.226-3.944c1.431-1.668,2.532-3.558,3.302-5.675
				c0.77-2.115,1.154-4.328,1.154-6.636v-0.898c0-2.35-0.375-4.585-1.122-6.7C469.022,43.928,467.932,42.057,466.501,40.432z
				 M464.609,60.247c-0.984,2.095-2.395,3.761-4.232,5.002c-1.838,1.24-4.039,1.86-6.604,1.86c-2.309,0-4.404-0.513-6.285-1.54
				c-1.882-1.026-3.367-2.446-4.456-4.264c-1.09-1.817-1.636-3.922-1.636-6.317v-3.142c0-2.523,0.545-4.713,1.636-6.572
				c1.09-1.86,2.574-3.303,4.456-4.329c1.881-1.025,3.976-1.538,6.285-1.538c2.478,0,4.649,0.599,6.508,1.796
				c1.86,1.197,3.291,2.832,4.296,4.905c1.003,2.075,1.506,4.435,1.506,7.086C466.084,55.801,465.591,58.152,464.609,60.247z"/>
			<path fill="#999999" d="M510.457,51.525c0-2.821-0.599-5.46-1.796-7.919c-1.197-2.457-2.981-4.477-5.354-6.059
				c-2.373-1.582-5.334-2.373-8.881-2.373c-2.779,0-5.204,0.502-7.278,1.507c-2.075,1.005-3.794,2.34-5.162,4.008
				c-1.368,1.668-2.384,3.549-3.046,5.643c-0.664,2.095-0.994,4.232-0.994,6.412v0.898c0,2.223,0.33,4.382,0.994,6.476
				c0.662,2.095,1.678,3.987,3.046,5.675c1.368,1.689,3.12,3.036,5.258,4.04c2.137,1.003,4.659,1.507,7.567,1.507
				c2.693,0,5.087-0.449,7.182-1.348c2.094-0.897,3.825-2.169,5.194-3.814c1.367-1.646,2.265-3.602,2.693-5.867h-4.488
				c-0.427,1.838-1.561,3.431-3.399,4.777c-1.838,1.346-4.232,2.02-7.182,2.02c-2.78,0-5.077-0.619-6.894-1.86
				c-1.817-1.24-3.164-2.919-4.04-5.034c-0.781-1.884-1.211-3.948-1.296-6.189h27.875V51.525z M483.877,46.204
				c0.876-2.053,2.19-3.697,3.944-4.938c1.753-1.24,3.954-1.86,6.604-1.86c2.523,0,4.627,0.545,6.317,1.635
				c1.688,1.09,2.97,2.587,3.847,4.488c0.654,1.42,1.064,3.013,1.23,4.777h-23.06C482.966,48.834,483.338,47.466,483.877,46.204z"/>
		</g>
		<g>
			<path fill="#FFFFFF" d="M255.41,83.931c-1.053-0.496-2.362-0.744-3.927-0.744h-3.261h-0.522h-2.035v19.151h2.557v-6.627h3.261
				c1.565,0,2.874-0.248,3.927-0.744c1.052-0.496,1.848-1.2,2.387-2.113c0.539-0.913,0.809-1.978,0.809-3.196v-0.417
				c0-1.235-0.27-2.305-0.809-3.209C257.257,85.127,256.461,84.427,255.41,83.931z M255.539,91.485
				c-0.304,0.609-0.752,1.092-1.343,1.448c-0.591,0.357-1.34,0.535-2.244,0.535h-3.731v-8.036h3.731
				c0.904,0,1.652,0.174,2.244,0.522c0.591,0.348,1.039,0.827,1.343,1.435s0.457,1.296,0.457,2.061
				C255.996,90.198,255.844,90.876,255.539,91.485z"/>
			<path fill="#FFFFFF" d="M274.586,89.671c-0.65,0.688-1.061,1.667-1.239,2.928v-4.193h-1.983v13.933h2.505v-7.54
				c0-1.391,0.374-2.456,1.122-3.196c0.748-0.739,1.818-1.109,3.21-1.109h0.887v-2.244h-0.47
				C276.826,88.249,275.481,88.724,274.586,89.671z"/>
			<path fill="#FFFFFF" d="M303.143,90.193c-0.644-0.686-1.426-1.235-2.348-1.643c-0.923-0.409-1.974-0.613-3.157-0.613
				c-1.183,0-2.235,0.205-3.157,0.613c-0.922,0.409-1.705,0.957-2.348,1.643c-0.644,0.688-1.131,1.462-1.462,2.323
				c-0.33,0.861-0.496,1.735-0.496,2.622v0.469c0,0.887,0.161,1.757,0.483,2.609c0.321,0.853,0.8,1.622,1.435,2.309
				c0.635,0.687,1.413,1.239,2.336,1.657c0.921,0.417,1.991,0.626,3.209,0.626s2.287-0.209,3.209-0.626
				c0.922-0.418,1.7-0.97,2.336-1.657c0.635-0.687,1.113-1.457,1.435-2.309c0.322-0.852,0.483-1.722,0.483-2.609v-0.469
				c0-0.887-0.165-1.761-0.496-2.622C304.273,91.655,303.786,90.88,303.143,90.193z M302.008,98.007
				c-0.391,0.783-0.957,1.405-1.696,1.865c-0.74,0.461-1.631,0.692-2.675,0.692c-1.044,0-1.935-0.231-2.675-0.692
				c-0.74-0.461-1.304-1.083-1.696-1.865c-0.391-0.783-0.588-1.661-0.588-2.635c0-0.991,0.2-1.879,0.601-2.661
				c0.4-0.783,0.974-1.4,1.722-1.852c0.747-0.452,1.626-0.678,2.635-0.678c1.026,0,1.909,0.226,2.648,0.678
				c0.739,0.452,1.309,1.07,1.709,1.852c0.4,0.783,0.6,1.67,0.6,2.661C302.595,96.347,302.4,97.225,302.008,98.007z"/>
			<path fill="#FFFFFF" d="M320.937,84.179h-2.401v4.227h-2.4v1.879h2.4v7.305c0,1.235,0.204,2.214,0.613,2.936
				c0.408,0.722,0.991,1.231,1.748,1.526c0.757,0.295,1.657,0.443,2.7,0.443h2.14v-2.244h-2.452c-0.748,0-1.327-0.204-1.735-0.613
				c-0.409-0.408-0.613-0.987-0.613-1.735v-7.619h4.8v-1.879h-4.8V84.179z"/>
			<path fill="#FFFFFF" d="M350.42,90.193c-0.644-0.686-1.427-1.235-2.349-1.643c-0.922-0.409-1.974-0.613-3.157-0.613
				c-1.183,0-2.235,0.205-3.156,0.613c-0.923,0.409-1.705,0.957-2.349,1.643c-0.643,0.688-1.13,1.462-1.461,2.323
				c-0.33,0.861-0.496,1.735-0.496,2.622v0.469c0,0.887,0.161,1.757,0.483,2.609c0.322,0.853,0.8,1.622,1.435,2.309
				c0.635,0.687,1.413,1.239,2.335,1.657c0.922,0.417,1.991,0.626,3.209,0.626s2.288-0.209,3.21-0.626
				c0.922-0.418,1.7-0.97,2.335-1.657s1.113-1.457,1.435-2.309c0.321-0.852,0.483-1.722,0.483-2.609v-0.469
				c0-0.887-0.165-1.761-0.496-2.622C351.551,91.655,351.063,90.88,350.42,90.193z M349.285,98.007
				c-0.391,0.783-0.957,1.405-1.696,1.865c-0.74,0.461-1.631,0.692-2.675,0.692c-1.043,0-1.935-0.231-2.674-0.692
				c-0.74-0.461-1.305-1.083-1.696-1.865s-0.587-1.661-0.587-2.635c0-0.991,0.2-1.879,0.6-2.661c0.4-0.783,0.974-1.4,1.722-1.852
				c0.748-0.452,1.627-0.678,2.635-0.678c1.026,0,1.909,0.226,2.648,0.678c0.74,0.452,1.309,1.07,1.709,1.852
				c0.4,0.783,0.6,1.67,0.6,2.661C349.872,96.347,349.676,97.225,349.285,98.007z"/>
			<path fill="#FFFFFF" d="M374.841,99.025c-0.348,0.469-0.808,0.844-1.383,1.122c-0.574,0.278-1.252,0.418-2.035,0.418
				c-1.008,0-1.848-0.231-2.517-0.692c-0.67-0.461-1.171-1.087-1.5-1.879c-0.331-0.791-0.496-1.665-0.496-2.622
				c0-0.991,0.165-1.879,0.496-2.661c0.33-0.783,0.825-1.4,1.487-1.852c0.661-0.452,1.487-0.678,2.478-0.678
				c1.148,0,2.061,0.291,2.739,0.874c0.679,0.583,1.079,1.309,1.2,2.179h2.401c-0.069-1.078-0.387-2.013-0.952-2.805
				c-0.565-0.791-1.313-1.404-2.244-1.84c-0.931-0.435-1.979-0.652-3.144-0.652c-1.166,0-2.184,0.209-3.053,0.626
				c-0.87,0.418-1.596,0.97-2.178,1.657c-0.583,0.687-1.018,1.457-1.305,2.309s-0.431,1.722-0.431,2.609v0.469
				c0,0.852,0.144,1.705,0.431,2.557c0.287,0.852,0.717,1.631,1.292,2.335c0.574,0.705,1.299,1.265,2.178,1.683
				c0.879,0.417,1.918,0.626,3.118,0.626c1.183,0,2.248-0.222,3.197-0.666c0.948-0.444,1.713-1.065,2.296-1.865
				c0.582-0.8,0.9-1.748,0.952-2.844h-2.401C375.397,98.025,375.189,98.556,374.841,99.025z"/>
			<path fill="#FFFFFF" d="M402.498,90.193c-0.644-0.686-1.427-1.235-2.349-1.643c-0.922-0.409-1.974-0.613-3.157-0.613
				c-1.183,0-2.235,0.205-3.156,0.613c-0.923,0.409-1.705,0.957-2.349,1.643c-0.643,0.688-1.13,1.462-1.461,2.323
				c-0.33,0.861-0.496,1.735-0.496,2.622v0.469c0,0.887,0.161,1.757,0.483,2.609c0.322,0.853,0.8,1.622,1.435,2.309
				c0.635,0.687,1.413,1.239,2.335,1.657c0.922,0.417,1.991,0.626,3.209,0.626s2.288-0.209,3.21-0.626
				c0.922-0.418,1.7-0.97,2.335-1.657s1.113-1.457,1.435-2.309c0.321-0.852,0.483-1.722,0.483-2.609v-0.469
				c0-0.887-0.165-1.761-0.496-2.622C403.628,91.655,403.141,90.88,402.498,90.193z M401.363,98.007
				c-0.391,0.783-0.957,1.405-1.696,1.865c-0.74,0.461-1.631,0.692-2.675,0.692c-1.043,0-1.935-0.231-2.674-0.692
				c-0.74-0.461-1.305-1.083-1.696-1.865c-0.391-0.783-0.587-1.661-0.587-2.635c0-0.991,0.2-1.879,0.6-2.661
				c0.4-0.783,0.974-1.4,1.722-1.852c0.748-0.452,1.627-0.678,2.635-0.678c1.026,0,1.909,0.226,2.648,0.678
				c0.74,0.452,1.309,1.07,1.709,1.852c0.4,0.783,0.6,1.67,0.6,2.661C401.949,96.347,401.753,97.225,401.363,98.007z"/>
			<polygon fill="#FFFFFF" points="417.682,83.292 415.751,83.292 415.751,85.275 417.682,85.275 417.682,102.339 420.187,102.339 
				420.187,85.275 420.187,83.292 			"/>
		</g>
		<path fill="#0FCAD5" d="M232.849,93.662h-76.765c0.937,0.937,1.874,1.874,2.811,2.811h73.954V93.662z"/>
		<path fill="#0FCAD5" d="M434.039,93.662h76.765c-0.937,0.937-1.874,1.874-2.811,2.811h-73.954V93.662z"/>
	</g>
	<g>
		<polygon fill="#FFFFFF" points="101.987,91.35 102.205,34.029 52.673,5.179 2.921,33.65 2.703,90.971 52.235,119.821 		"/>
		
			<linearGradient id="SVGID_1_" gradientUnits="userSpaceOnUse" x1="78.9847" y1="32.9846" x2="78.9847" y2="122.6777" gradientTransform="matrix(1 0.0038 -0.0038 1 -26.2331 -15.6874)">
			<stop  offset="0" style="stop-color:#1DFFB4"/>
			<stop  offset="1" style="stop-color:#0094F6"/>
		</linearGradient>
		<path fill="url(#SVGID_1_)" d="M52.679,3.443L1.421,32.776L1.196,91.833l51.032,29.724l51.258-29.334l0.225-59.057L52.679,3.443z
			 M52.654,9.984l39.94,23.263l-11.019,6.314L52.606,22.687L23.508,39.339l-10.971-6.398L52.654,9.984z M46.764,111.992
			L6.798,88.714l0.177-46.281l10.977,6.401l-0.128,33.57l28.989,16.885L46.764,111.992z M49.626,82.797l-16.101-9.379l0.071-18.626
			l16.101,9.378L49.626,82.797z M36.358,50.036l16.179-9.259l16.108,9.382l-16.179,9.259L36.358,50.036z M55.198,64.192
			l16.172-9.255l-0.071,18.626l-16.172,9.255L55.198,64.192z M97.908,89.061l-40.143,22.973l0.048-12.704l29.117-16.663l0.128-33.57
			l11.026-6.317L97.908,89.061z"/>
	</g>
</g>
</svg>
